# xmcd
#
# Track frame offsets:
#	150
#	2254
#	12198
#	21118
#	34693
#	48759
#	66652
#	76008
#	85301
#	97614
#	105715
#	117789
#	127525
#	137556
#	147368
#	157772
#	167998
#	180628
#	184159
#	188416
#	200754
#	203386
#
# Disc length: 2775 seconds
#
# Revision: 0
# Processed by: cddbd v1.5.2PL0 Copyright (c) Steve Scherf et al.
# Submitted via: dBpowerAMP V4.0
#
DISCID=040ad516
DTITLE=Jack Knife and the Sharps - Rumble
DYEAR=1900
DGENRE=Rockabilly
TTITLE0=Prelude
TTITLE1=Rumble
TTITLE2=Cry, Cry, Cry
TTITLE3=What's Inside A Girl
TTITLE4=Matchbox
TTITLE5=Lover's Rock
TTITLE6=All My Tears
TTITLE7=Shout Bama Lama
TTITLE8=Cajun Honey
TTITLE9=Heart Breaker
TTITLE10=Breath For Me Presley
TTITLE11=Strychnine
TTITLE12=White Trash
TTITLE13=Baby Doll
TTITLE14=Driving Wheel
TTITLE15=Peace Pipe
TTITLE16=Please Give Me Something
TTITLE17=Postlude
TTITLE18=Raise A Glass
TTITLE19=One More For The Road
TTITLE20=Riding Home
TTITLE21=Wreck Of The '97
EXTD=
EXTT0=
EXTT1=
EXTT2=
EXTT3=
EXTT4=
EXTT5=
EXTT6=
EXTT7=
EXTT8=
EXTT9=
EXTT10=
EXTT11=
EXTT12=
EXTT13=
EXTT14=
EXTT15=
EXTT16=
EXTT17=
EXTT18=
EXTT19=
EXTT20=
EXTT21=
PLAYORDER=
